<svg width="922" height="716" viewBox="0 0 922 716" fill="none" xmlns="http://www.w3.org/2000/svg">
<g clip-path="url(#clip0_34_265)">
<path d="M120.284 315.072C85.9636 300.65 58.4511 273.65 43.3789 239.598C34.946 220.308 30.829 199.39 28.4848 178.468C26.185 157.941 25.7154 136.288 34.5458 117.617C39.3806 107.394 46.7801 98.5985 56.0233 92.0875C65.2665 85.5766 76.0381 81.5722 87.2883 80.4645C98.5385 79.3569 109.884 81.1839 120.218 85.7674C130.553 90.3508 139.524 97.5345 146.258 106.618C152.054 114.437 156.129 123.819 156.233 133.552C156.452 153.969 140.042 170.354 132.843 189.46C125.403 209.204 128.084 231.08 129.349 252.142C130.614 273.204 129.812 296.037 117.038 312.827" fill="#F2F2F2"/>
<path d="M735.819 573.24C772.064 564.746 803.692 542.715 824.23 511.655C835.761 494.043 843.308 474.104 849.107 453.866C854.797 434.01 858.87 412.739 853.276 392.856C850.213 381.97 844.383 372.063 836.355 364.101C828.327 356.139 818.374 350.393 807.466 347.424C796.558 344.455 785.067 344.363 774.113 347.158C763.159 349.953 753.116 355.539 744.962 363.372C737.943 370.114 732.361 378.684 730.636 388.264C727.017 408.359 740.465 427.252 744.378 447.292C748.422 468 742.131 489.122 737.373 509.678C732.614 530.234 729.598 552.882 739.394 571.567" fill="#F2F2F2"/>
<path d="M459.405 540.454C407.743 540.618 357.479 523.669 316.457 492.253C276.291 461.552 246.947 418.849 232.682 370.336L234.725 369.742C263.574 469.002 355.966 538.326 459.405 538.326C490.333 538.384 520.962 532.27 549.5 520.342L550.319 522.305C521.522 534.343 490.614 540.512 459.405 540.454Z" fill="#E6E6E6"/>
<path d="M682.733 234.317C652.045 136.163 562.297 70.2164 459.405 70.2164C428.915 70.1611 398.713 76.1023 370.514 87.702L369.705 85.7342C407.426 70.279 448.501 64.8429 488.942 69.9534C529.383 75.0639 567.817 90.5475 600.512 114.901C640.303 144.724 669.764 186.259 684.763 233.682L682.733 234.317Z" fill="#E6E6E6"/>
<path d="M746.533 614.926C649.78 614.926 571.066 536.179 571.066 439.385C571.066 342.591 649.78 263.844 746.533 263.844C843.286 263.844 922 342.591 922 439.385C922 536.179 843.286 614.926 746.533 614.926ZM746.533 265.971C650.953 265.971 573.193 343.764 573.193 439.385C573.193 535.006 650.953 612.798 746.533 612.798C842.113 612.798 919.873 535.006 919.873 439.385C919.873 343.764 842.113 265.971 746.533 265.971Z" fill="#3F3D56"/>
<path d="M175.467 351.082C78.7141 351.082 0 272.335 0 175.541C0 78.7473 78.7141 0 175.467 0C272.22 0 350.934 78.7473 350.934 175.541C350.934 272.335 272.22 351.082 175.467 351.082ZM175.467 2.12777C79.8871 2.12777 2.12687 79.9208 2.12687 175.541C2.12687 271.161 79.8871 348.954 175.467 348.954C271.047 348.954 348.807 271.161 348.807 175.541C348.807 79.9208 271.047 2.12777 175.467 2.12777Z" fill="#3F3D56"/>
<path d="M161.824 176.528L146.329 206.634L161.629 215.409C161.629 215.409 172.124 181.591 172.433 180.308C174.016 179.661 175.365 178.548 176.302 177.118C177.239 175.687 177.719 174.005 177.68 172.295C177.641 170.585 177.084 168.928 176.082 167.541C175.081 166.155 173.682 165.106 172.072 164.532C170.461 163.958 168.714 163.887 167.063 164.328C165.411 164.769 163.932 165.701 162.821 167.002C161.71 168.302 161.02 169.909 160.842 171.61C160.664 173.311 161.007 175.026 161.824 176.528V176.528Z" fill="#A0616A"/>
<path d="M82.3052 180.623C89.217 206.242 114.061 222.513 134.691 242.021C137.231 242.913 139.929 243.264 142.613 243.053C145.297 242.842 147.908 242.074 150.278 240.796C152.648 239.518 154.725 237.76 156.377 235.633C158.029 233.507 159.22 231.058 159.872 228.445L166.825 201.223L149.153 200.75L141.839 208.702L118.174 191.832L82.3052 180.623Z" fill="#3F3D56"/>
<path d="M720.447 466.661C723.447 466.857 726.253 468.217 728.267 470.451C730.28 472.685 731.343 475.618 731.229 478.624C731.196 479.234 731.112 479.841 730.979 480.438L765.053 501.914L746.215 510.249L716.746 488.577C714.315 487.834 712.198 486.307 710.725 484.233C709.253 482.16 708.508 479.657 708.607 477.115C708.677 475.67 709.031 474.252 709.649 472.943C710.267 471.635 711.136 470.46 712.208 469.488C713.279 468.515 714.531 467.763 715.893 467.275C717.255 466.787 718.7 466.571 720.145 466.642C720.246 466.647 720.346 466.653 720.447 466.661Z" fill="#FFB6B6"/>
<path d="M753.305 492.153L744.86 509.584L778.25 531.08C780.626 532.623 783.357 533.532 786.183 533.721C789.009 533.911 791.836 533.374 794.397 532.162C797.51 530.672 800.054 528.209 801.646 525.146C803.238 522.083 803.791 518.586 803.223 515.18L792.389 453.3C791.662 448.97 789.303 445.083 785.799 442.439C782.295 439.795 777.911 438.595 773.549 439.085C769.258 439.555 765.33 441.71 762.628 445.077C759.926 448.444 758.671 452.747 759.14 457.04C759.159 457.207 759.18 457.375 759.203 457.542C759.285 458.137 759.399 458.727 759.544 459.309L771.372 503.317L753.305 492.153Z" fill="#FFC000"/>
<path d="M722.958 499.22L710.384 466.762C709.955 465.651 709.984 464.415 710.465 463.325C710.945 462.236 711.839 461.381 712.948 460.95L720.019 458.208C721.13 457.779 722.365 457.808 723.454 458.289C724.543 458.77 725.397 459.663 725.829 460.773L738.403 493.232C738.832 494.343 738.803 495.579 738.322 496.668C737.841 497.758 736.948 498.612 735.838 499.044L728.767 501.785C727.657 502.214 726.422 502.185 725.332 501.704C724.243 501.223 723.389 500.33 722.958 499.22Z" fill="#3F3D56"/>
<path d="M714.417 462.284C713.819 462.517 713.338 462.977 713.079 463.565C712.82 464.152 712.804 464.818 713.035 465.416L725.609 497.875C725.842 498.473 726.302 498.954 726.889 499.213C727.476 499.473 728.141 499.488 728.74 499.257L735.811 496.515C736.409 496.283 736.89 495.822 737.149 495.235C737.408 494.648 737.424 493.982 737.193 493.383L724.619 460.925C724.386 460.327 723.926 459.846 723.339 459.586C722.752 459.327 722.086 459.312 721.488 459.543L714.417 462.284Z" fill="#FFC000"/>
<path d="M750.932 566.948H798.684V519.176H750.932V566.948Z" fill="#FFB8B8"/>
<path d="M637.689 659.868L619.452 653.729L609.296 703.391L621.653 707.55L637.689 659.868Z" fill="#FFB6B6"/>
<path d="M670.031 650.419L651.306 654.849L668.916 702.379L681.604 699.377L670.031 650.419Z" fill="#FFB6B6"/>
<path d="M796.971 579.428C806.542 643.261 679.088 605.522 679.088 605.522L639.126 660.673L615.73 656.417C615.73 656.417 626.257 623.309 645.058 578.925C653.407 559.214 748.211 564.03 748.211 564.03L750.179 548.575L804.415 547.511L796.971 579.428Z" fill="#2F2E41"/>
<path d="M675.065 591.827L640.353 592.626C645.917 640.508 650.824 659.609 650.824 659.609L671.029 653.226L675.065 591.827Z" fill="#2F2E41"/>
<path d="M769.691 441.546L779.303 429.186L793.013 428.592L794.382 440.216L801.175 443.35C807.959 469.132 809.006 496.088 804.244 522.319C803.334 523.177 802.669 524.262 802.317 525.462C801.966 526.663 801.941 527.936 802.245 529.149L802.686 530.906L802.645 530.97C801.199 533.252 800.709 536.011 801.279 538.652L804.524 544.419C805.688 546.493 806.387 548.796 806.571 551.167C806.756 553.539 806.422 555.922 805.592 558.151C804.763 560.381 803.458 562.403 801.769 564.076C800.079 565.75 798.046 567.036 795.809 567.844C775.867 575.075 757.173 577.769 743.343 557.476L738.994 486.759L769.691 441.546Z" fill="#FFC000"/>
<path d="M779.76 432.469C793.761 432.469 805.11 421.114 805.11 407.108C805.11 393.102 793.761 381.747 779.76 381.747C765.76 381.747 754.41 393.102 754.41 407.108C754.41 421.114 765.76 432.469 779.76 432.469Z" fill="#FFB8B8"/>
<path d="M792.486 376.536C803.22 376.742 811.733 386.703 811.501 398.783C819.444 407.075 816.817 417.221 810.18 428.07C798.04 429.48 795.205 430.067 784.558 434.411L783.155 427.853L779.976 436.394C777.27 437.641 774.585 439.011 771.92 440.503C770.005 431.715 770.479 423.172 775.627 415.732C780.2 409.122 769.071 401.274 761.112 402.383L761.229 396.312L759.23 402.347C756.128 404.628 752.696 403.802 749.177 402.154V402.154C743.47 372.483 787.652 364.369 792.486 376.536Z" fill="#2F2E41"/>
<path d="M627.271 715.95L619.146 714.888L618.697 707.024L613.981 714.213L592.431 711.397C591.398 711.262 590.435 710.8 589.683 710.079C588.931 709.358 588.429 708.415 588.25 707.388C588.072 706.362 588.226 705.305 588.69 704.372C589.155 703.439 589.905 702.679 590.832 702.203L609.593 692.562L610.607 684.803L628.566 688.249L627.271 715.95Z" fill="#2F2E41"/>
<path d="M686.266 711.473L678.139 712.519L675.701 705.03L672.973 713.184L651.418 715.959C650.385 716.092 649.336 715.892 648.425 715.386C647.514 714.881 646.788 714.097 646.354 713.15C645.919 712.203 645.799 711.141 646.01 710.121C646.221 709.1 646.753 708.174 647.528 707.477L663.211 693.368L662.213 685.608L680.458 684.358L686.266 711.473Z" fill="#2F2E41"/>
<path d="M723.504 472.594C726.504 472.79 729.31 474.15 731.324 476.384C733.337 478.619 734.4 481.551 734.285 484.557C734.253 485.168 734.169 485.775 734.036 486.371L768.11 507.847L749.272 516.182L719.803 494.511C717.372 493.768 715.255 492.24 713.782 490.166C712.31 488.093 711.565 485.59 711.664 483.049C711.734 481.603 712.088 480.185 712.706 478.877C713.324 477.568 714.193 476.394 715.265 475.421C716.336 474.449 717.588 473.697 718.95 473.208C720.312 472.72 721.757 472.505 723.202 472.575C723.303 472.58 723.403 472.586 723.504 472.594Z" fill="#FFB6B6"/>
<path d="M756.362 498.086L747.917 515.518L781.307 537.013C783.683 538.556 786.414 539.465 789.24 539.655C792.066 539.844 794.893 539.307 797.454 538.096C800.566 536.605 803.11 534.143 804.703 531.08C806.295 528.017 806.848 524.519 806.28 521.113L795.446 459.233C794.718 454.903 792.36 451.016 788.856 448.372C785.351 445.728 780.968 444.528 776.606 445.019C774.481 445.251 772.424 445.9 770.55 446.928C768.676 447.956 767.023 449.343 765.685 451.01C764.347 452.678 763.35 454.592 762.752 456.645C762.153 458.697 761.965 460.847 762.197 462.973C762.216 463.141 762.237 463.308 762.26 463.476C762.342 464.07 762.456 464.66 762.601 465.242L774.429 509.25L756.362 498.086Z" fill="#FFC000"/>
<path d="M117.419 494.724L128.13 499.557L151.864 460.527L136.056 453.393L117.419 494.724Z" fill="#A0616A"/>
<path d="M112.001 505.731L144.938 520.596L145.126 520.179C146.659 516.778 146.78 512.906 145.46 509.416C144.141 505.926 141.49 503.103 138.09 501.568L138.089 501.568L134.132 494.286L120.848 493.786L117.973 492.489L112.001 505.731Z" fill="#2F2E41"/>
<path d="M250.077 441.645L261.389 438.469L254.523 393.302L237.826 397.992L250.077 441.645Z" fill="#A0616A"/>
<path d="M252.991 453.564L287.779 443.794L287.656 443.354C286.647 439.761 284.254 436.716 281.002 434.889C277.75 433.062 273.906 432.602 270.314 433.61L270.313 433.61L262.606 430.572L252.103 438.725L249.066 439.577L252.991 453.564Z" fill="#2F2E41"/>
<path d="M78.8628 309.672C79.152 318.045 96.9516 340.634 106.313 343.873C107.904 344.424 108.834 344.728 108.834 344.728L112.092 343.742L151.549 331.8C158.458 335.865 179.068 337.933 195.979 338.967C209.439 339.787 216.941 346.827 216.941 346.827C220.912 377.039 232.36 399.064 245.561 426.134L261.404 423.378L246.437 322.545C246.114 320.367 245.158 318.333 243.689 316.694C242.219 315.055 240.301 313.885 238.172 313.328L130.505 285.153C130.505 285.153 124.567 284.078 112.044 290.121C91.4271 300.072 78.6561 303.58 78.8628 309.672Z" fill="#2F2E41"/>
<path d="M99.4361 308.052C95.8252 315.611 101.176 343.873 107.982 351.073L109.789 352.302L110.399 352.62C114.482 366.436 158.294 406.843 158.294 406.843C143.495 425.704 130.307 448.713 124.422 474.493L141.534 480.748L189.702 408.81C190.963 406.926 191.625 404.704 191.6 402.436C191.576 400.168 190.865 397.961 189.563 396.105L169.912 368.102L137.893 306.053C115.013 305.347 102.067 302.554 99.4361 308.052Z" fill="#2F2E41"/>
<path d="M79.5066 312.964C79.4536 312.964 78.1994 309.679 78.174 309.672C77.7475 309.553 71.9744 308.983 73.2727 299.421L74.9338 288.897L73.3122 279.605L70.5845 276.876L74.9683 272.491L72.2818 252.601L71.2503 212.777C68.6615 199.098 69.3376 186.587 81.8784 180.562L96.2558 167.221L112.616 167.023L131.177 178.031L140.169 195.966L143.657 244.572L146.262 250.652L146.039 250.854C146.021 250.869 144.286 252.439 143.507 253.302C143.129 253.839 143.838 257.844 144.712 261.246L145.834 269.642L143.007 271.663L146.682 276.006L156.701 292.948L156.101 292.798C155.425 292.63 149.124 302.091 79.9696 312.613C79.6505 312.661 79.6393 312.964 79.5066 312.964Z" fill="#3F3D56"/>
<path d="M158.693 207.769L152.968 204.78C152.07 204.31 151.395 203.502 151.091 202.535C150.787 201.568 150.879 200.519 151.347 199.619L165.054 173.341C165.524 172.442 166.331 171.767 167.298 171.463C168.265 171.159 169.313 171.251 170.212 171.719L175.937 174.708C176.835 175.178 177.51 175.985 177.814 176.953C178.118 177.92 178.026 178.969 177.558 179.868L163.851 206.147C163.382 207.045 162.575 207.721 161.607 208.025C160.64 208.329 159.592 208.237 158.693 207.769Z" fill="#3F3D56"/>
<path d="M168.843 172.71C168.359 172.457 167.794 172.408 167.273 172.572C166.752 172.735 166.317 173.099 166.063 173.584L152.357 199.862C152.105 200.347 152.055 200.912 152.219 201.433C152.383 201.955 152.746 202.39 153.23 202.643L158.955 205.632C159.44 205.884 160.005 205.934 160.526 205.77C161.047 205.606 161.482 205.242 161.735 204.758L175.442 178.479C175.694 177.994 175.743 177.429 175.58 176.908C175.416 176.387 175.052 175.952 174.568 175.698L168.843 172.71Z" fill="#FFC000"/>
<path d="M108.122 163.435C121.041 163.435 131.513 152.958 131.513 140.034C131.513 127.11 121.041 116.633 108.122 116.633C95.2035 116.633 84.731 127.11 84.731 140.034C84.731 152.958 95.2035 163.435 108.122 163.435Z" fill="#A0616A"/>
<path d="M96.6176 155.106C95.5921 154.29 94.3128 153.861 93.0029 153.892C92.5965 153.959 92.209 154.111 91.8659 154.339C91.5228 154.567 91.232 154.865 91.0127 155.214C90.8909 155.367 90.7328 155.488 90.5526 155.564C90.3725 155.641 90.1761 155.672 89.9812 155.653C87.4853 155.744 82.1654 151.112 81.8016 142.174C81.6287 137.926 79.0883 130.739 83.1325 126.846C83.4036 125.275 86.5616 109.037 100.797 108.59C115.371 108.126 125.072 111.055 127.403 116.612C129.021 121.023 130.252 125.568 131.08 130.194L131.569 132.944L130.427 130.395C130.405 130.347 128.323 125.783 124.46 124.26C124.398 125.003 124.209 125.73 123.902 126.409C122.642 129.142 119.465 130.925 115.809 130.952C113.282 130.874 110.791 130.338 108.455 129.37C108.72 129.752 108.868 130.202 108.883 130.666C108.897 131.131 108.777 131.589 108.537 131.987C108.297 132.384 107.948 132.704 107.53 132.907C107.113 133.11 106.645 133.188 106.185 133.132L105.509 133.048C105.296 133.021 105.08 133.07 104.899 133.186C104.718 133.302 104.584 133.477 104.519 133.682C104.454 133.886 104.463 134.107 104.543 134.306C104.624 134.505 104.772 134.67 104.961 134.771L105.557 135.089L104.834 135.439C101.926 136.737 99.5302 138.962 98.0206 141.767C96.511 144.572 95.973 147.798 96.4909 150.941L97.3331 155.681L96.6176 155.106Z" fill="#2F2E41"/>
<path d="M466.966 516.707C466.326 516.736 465.693 516.568 465.152 516.226C464.611 515.883 464.188 515.382 463.941 514.791C463.694 514.2 463.635 513.547 463.771 512.921C463.907 512.295 464.232 511.726 464.702 511.291L464.916 510.44C464.888 510.372 464.86 510.304 464.831 510.236C464.187 508.713 463.107 507.415 461.727 506.504C460.348 505.593 458.73 505.111 457.077 505.117C455.424 505.123 453.81 505.618 452.437 506.539C451.064 507.46 449.994 508.766 449.361 510.294C446.83 516.39 443.609 522.497 442.816 528.944C442.466 531.793 442.614 534.681 443.251 537.48C437.308 524.511 434.222 510.415 434.202 496.148C434.201 492.568 434.4 488.99 434.798 485.432C435.127 482.515 435.583 479.619 436.167 476.744C439.352 461.143 446.191 446.521 456.122 434.078C460.929 431.454 464.816 427.419 467.26 422.517C468.145 420.755 468.771 418.874 469.118 416.933C468.576 417.004 468.025 417.048 467.482 417.084C467.313 417.093 467.136 417.102 466.967 417.111L466.903 417.114C466.307 417.14 465.716 416.994 465.201 416.693C464.687 416.391 464.27 415.947 464.001 415.415C463.733 414.882 463.624 414.282 463.688 413.689C463.752 413.096 463.986 412.534 464.362 412.07C464.596 411.782 464.83 411.494 465.064 411.206C465.42 410.761 465.785 410.326 466.14 409.881C466.181 409.839 466.22 409.794 466.256 409.748C466.665 409.241 467.073 408.743 467.482 408.236C466.736 407.077 465.732 406.106 464.549 405.399C460.451 402.998 454.798 404.661 451.838 408.369C448.869 412.077 448.309 417.28 449.34 421.913C450.354 425.855 452.031 429.596 454.3 432.975C454.078 433.26 453.847 433.535 453.625 433.82C449.562 439.045 446.022 444.657 443.054 450.574C443.776 443.945 442.914 437.24 440.54 431.01C438.134 425.203 433.625 420.313 429.654 415.294C424.884 409.264 415.102 411.896 414.262 419.539C414.254 419.613 414.246 419.687 414.238 419.761C414.828 420.093 415.405 420.447 415.97 420.821C416.68 421.295 417.23 421.973 417.548 422.765C417.866 423.558 417.938 424.428 417.753 425.261C417.568 426.095 417.136 426.853 416.513 427.437C415.891 428.021 415.106 428.403 414.262 428.533L414.176 428.546C414.386 430.673 414.758 432.781 415.287 434.851C416.821 440.631 419.533 446.032 423.251 450.714C426.97 455.397 431.615 459.26 436.896 462.063C437.243 462.24 437.58 462.418 437.927 462.587C434.945 471.041 433.075 479.848 432.363 488.785C431.96 494.057 431.983 499.354 432.434 504.622L432.407 504.436C431.269 498.577 428.145 493.291 423.563 489.469C416.756 483.876 407.14 481.816 399.798 477.32C399.017 476.819 398.11 476.551 397.183 476.549C396.255 476.547 395.347 476.81 394.564 477.307C393.781 477.805 393.157 478.516 392.765 479.357C392.373 480.197 392.229 481.133 392.351 482.052C392.36 482.118 392.371 482.183 392.381 482.249C393.475 482.695 394.541 483.208 395.572 483.787C396.162 484.12 396.739 484.473 397.304 484.847C398.014 485.321 398.564 485.999 398.882 486.792C399.2 487.584 399.271 488.454 399.086 489.288C398.902 490.121 398.47 490.88 397.847 491.464C397.224 492.047 396.44 492.429 395.596 492.56L395.509 492.573C395.447 492.582 395.394 492.591 395.332 492.6C397.202 497.067 399.827 501.179 403.092 504.756C407.125 509.085 411.999 512.545 417.416 514.922C422.833 517.3 428.678 518.546 434.594 518.584H434.603C436.208 525.564 438.535 532.359 441.545 538.859H466.344C466.433 538.583 466.513 538.298 466.593 538.023C464.298 538.167 461.993 538.03 459.731 537.614C461.571 535.355 463.411 533.078 465.251 530.82C465.292 530.778 465.331 530.733 465.367 530.686C466.3 529.53 467.242 528.383 468.176 527.227L468.176 527.226C468.226 523.682 467.819 520.147 466.967 516.707L466.966 516.707Z" fill="#E6E6E6"/>
<path d="M586.176 131.993C586.654 132.419 586.99 132.981 587.139 133.605C587.287 134.228 587.241 134.882 587.005 135.477C586.77 136.073 586.357 136.582 585.823 136.935C585.288 137.288 584.659 137.469 584.018 137.452L583.271 137.912C583.244 137.981 583.217 138.049 583.19 138.118C582.589 139.658 582.456 141.342 582.809 142.958C583.161 144.573 583.983 146.049 585.171 147.198C586.359 148.348 587.861 149.121 589.486 149.42C591.112 149.719 592.79 149.531 594.309 148.879C600.374 146.28 606.942 144.156 612.007 140.093C614.246 138.297 616.155 136.125 617.651 133.676C612.859 147.113 605.235 159.363 595.295 169.594C592.798 172.158 590.16 174.581 587.393 176.852C585.122 178.711 582.775 180.466 580.351 182.118C567.186 191.066 552.086 196.762 536.293 198.738C531.021 197.261 525.422 197.436 520.252 199.24C518.388 199.884 516.628 200.794 515.025 201.942C515.463 202.27 515.889 202.623 516.302 202.976C516.429 203.088 516.563 203.205 516.69 203.317L516.737 203.359C517.183 203.756 517.504 204.274 517.662 204.849C517.821 205.424 517.81 206.033 517.63 206.602C517.451 207.171 517.111 207.676 516.651 208.057C516.191 208.437 515.631 208.676 515.039 208.745C514.67 208.788 514.301 208.831 513.933 208.874C513.368 208.944 512.803 209.001 512.238 209.072C512.179 209.073 512.12 209.078 512.062 209.086C511.416 209.164 510.775 209.235 510.129 209.313C509.855 210.664 509.896 212.06 510.25 213.392C511.51 217.973 516.719 220.729 521.425 220.141C526.139 219.558 530.169 216.224 532.663 212.186C534.687 208.655 536.096 204.805 536.829 200.801C537.186 200.752 537.544 200.716 537.902 200.667C544.457 199.761 550.907 198.215 557.161 196.05C552.019 200.293 547.958 205.697 545.312 211.816C542.984 217.654 542.801 224.305 542.143 230.672C541.353 238.321 550.193 243.266 556.127 238.38C556.185 238.332 556.242 238.285 556.299 238.237C556.109 237.587 555.942 236.931 555.798 236.269C555.621 235.433 555.7 234.564 556.025 233.774C556.35 232.985 556.906 232.312 557.62 231.844C558.334 231.376 559.172 231.134 560.026 231.151C560.879 231.168 561.707 231.442 562.402 231.938L562.473 231.989C563.807 230.319 565.011 228.55 566.077 226.698C569.01 221.487 570.836 215.727 571.44 209.777C572.044 203.827 571.413 197.817 569.586 192.123C569.462 191.753 569.344 191.39 569.214 191.027C577.248 187.055 584.731 182.054 591.476 176.151C595.443 172.657 599.121 168.847 602.474 164.76L602.363 164.912C599.091 169.902 597.64 175.869 598.255 181.806C599.227 190.564 604.676 198.753 606.798 207.1C607.007 208.004 607.471 208.829 608.133 209.478C608.796 210.127 609.63 210.574 610.537 210.764C611.445 210.954 612.388 210.881 613.256 210.553C614.123 210.224 614.878 209.655 615.433 208.911C615.471 208.857 615.51 208.804 615.548 208.75C615.076 207.666 614.671 206.554 614.336 205.42C614.146 204.77 613.979 204.113 613.835 203.451C613.658 202.616 613.737 201.747 614.062 200.957C614.387 200.167 614.943 199.495 615.657 199.026C616.371 198.558 617.209 198.317 618.063 198.334C618.916 198.35 619.744 198.625 620.439 199.121L620.51 199.171C620.561 199.208 620.606 199.239 620.656 199.276C622.434 194.771 623.423 189.993 623.58 185.153C623.713 179.236 622.635 173.355 620.415 167.87C618.195 162.384 614.878 157.411 610.668 153.253L610.662 153.247C614.382 147.127 617.456 140.636 619.835 133.88L602.075 116.564C601.819 116.699 601.564 116.847 601.314 116.988C603.059 118.488 604.613 120.195 605.943 122.073C603.049 122.406 600.143 122.751 597.25 123.084C597.191 123.085 597.132 123.09 597.074 123.099C595.599 123.275 594.124 123.438 592.649 123.615L592.648 123.615C590.14 126.118 587.965 128.934 586.176 131.992L586.176 131.993Z" fill="#E6E6E6"/>
<path d="M158.626 201.44L136.262 226.859L148.962 239.1C148.962 239.1 167.381 208.862 167.994 207.693C169.686 207.451 171.266 206.702 172.523 205.542C173.78 204.383 174.656 202.87 175.035 201.202C175.413 199.534 175.277 197.79 174.644 196.202C174.01 194.613 172.909 193.254 171.487 192.305C170.065 191.356 168.388 190.861 166.679 190.885C164.969 190.91 163.308 191.454 161.914 192.444C160.52 193.434 159.459 194.824 158.872 196.43C158.285 198.037 158.199 199.784 158.626 201.44Z" fill="#A0616A"/>
<path d="M80.5078 186.018C80.9684 212.55 101.097 234.389 116.352 258.339C118.598 259.824 121.129 260.823 123.784 261.273C126.438 261.723 129.157 261.614 131.767 260.953C134.377 260.292 136.82 259.093 138.94 257.433C141.061 255.774 142.812 253.69 144.081 251.315L157.458 226.609L140.434 221.841L131.403 227.769L112.564 205.636L80.5078 186.018Z" fill="#3F3D56"/>
</g>
<defs>
<clipPath id="clip0_34_265">
<rect width="922" height="716" fill="white"/>
</clipPath>
</defs>
</svg>
