<svg width="922" height="928" viewBox="0 0 922 928" fill="none" xmlns="http://www.w3.org/2000/svg">
<path d="M232.578 890.519C231.561 890.565 230.554 890.299 229.693 889.754C228.833 889.21 228.161 888.415 227.768 887.476C227.375 886.537 227.28 885.5 227.497 884.506C227.714 883.512 228.231 882.608 228.979 881.918C229.104 881.42 229.194 881.063 229.319 880.566C228.345 878.095 226.655 875.971 224.465 874.465C222.276 872.96 219.686 872.143 217.028 872.118C214.37 872.093 211.765 872.861 209.547 874.325C207.329 875.788 205.6 877.88 204.579 880.333C198.693 894.099 191.074 908.35 194.863 923.512C169.836 870.519 178.347 804.602 215.334 759.283C225.557 753.656 233.843 743.66 236.001 732.052C230.941 733.765 224.633 729.654 228.437 724.329C230.086 722.294 231.751 720.275 233.4 718.239C214.18 697.789 191.279 729.93 212.435 757.531C205.514 766.2 199.52 775.568 194.549 785.482C195.697 774.955 194.327 764.305 190.551 754.41C186.725 745.188 179.553 737.421 173.238 729.449C165.559 719.735 149.754 724.216 148.721 736.544C155.808 738.871 156.728 749.098 148.622 750.498C150.745 773.431 165.741 794.506 186.395 804.563C178.768 825.944 175.79 848.704 177.659 871.325C174.013 844.888 145.608 838.472 125.754 827.964C124.49 827.155 123.018 826.73 121.517 826.742C120.016 826.754 118.55 827.202 117.3 828.032C116.049 828.862 115.068 830.037 114.474 831.415C113.881 832.792 113.702 834.313 113.959 835.79C116.699 836.904 119.322 838.286 121.789 839.917C122.945 840.694 123.832 841.808 124.329 843.108C124.826 844.408 124.908 845.83 124.565 847.178C124.221 848.527 123.468 849.736 122.41 850.641C121.352 851.545 120.039 852.1 118.652 852.23C128.66 876.976 154.534 893.593 181.108 893.499C183.662 904.587 187.362 915.378 192.149 925.701H231.59C231.732 925.263 231.859 924.811 231.986 924.374C228.335 924.603 224.67 924.385 221.072 923.724C230.731 912.299 238.201 906.47 232.58 890.519L232.578 890.519Z" fill="#F2F2F2"/>
<path d="M584.205 890.519C585.223 890.565 586.23 890.299 587.09 889.754C587.951 889.21 588.623 888.415 589.016 887.476C589.409 886.537 589.503 885.5 589.287 884.506C589.07 883.512 588.553 882.608 587.805 881.918C587.68 881.42 587.59 881.063 587.465 880.566C588.438 878.095 590.128 875.971 592.318 874.465C594.508 872.96 597.098 872.143 599.756 872.118C602.414 872.093 605.019 872.861 607.236 874.325C609.454 875.788 611.184 877.88 612.204 880.333C618.091 894.099 625.71 908.35 621.921 923.512C646.948 870.519 638.437 804.602 601.45 759.283C591.227 753.656 582.94 743.66 580.783 732.052C585.843 733.765 592.151 729.654 588.347 724.329C586.698 722.294 585.033 720.275 583.384 718.239C602.604 697.789 625.505 729.93 604.349 757.531C611.269 766.2 617.264 775.568 622.235 785.482C621.087 774.955 622.457 764.305 626.232 754.41C630.059 745.188 637.23 737.421 643.546 729.449C651.225 719.735 667.029 724.216 668.063 736.544C660.976 738.871 660.055 749.098 668.162 750.498C666.038 773.431 651.042 794.506 630.388 804.563C638.016 825.944 640.994 848.704 639.125 871.325C642.771 844.888 671.176 838.472 691.03 827.964C692.294 827.155 693.766 826.73 695.267 826.742C696.768 826.754 698.233 827.202 699.484 828.032C700.734 828.862 701.716 830.037 702.309 831.415C702.903 832.792 703.082 834.313 702.825 835.79C700.085 836.904 697.462 838.286 694.995 839.917C693.839 840.694 692.952 841.808 692.455 843.108C691.958 844.408 691.876 845.83 692.219 847.178C692.563 848.527 693.315 849.736 694.374 850.641C695.432 851.545 696.745 852.1 698.131 852.23C688.124 876.976 662.25 893.593 635.676 893.499C633.122 904.587 629.422 915.378 624.635 925.701H585.194C585.052 925.263 584.925 924.811 584.798 924.374C588.448 924.603 592.114 924.385 595.711 923.724C586.053 912.299 578.583 906.47 584.204 890.519L584.205 890.519Z" fill="#F2F2F2"/>
<path d="M598.829 896.37L581.844 900.229L558.854 836.611L583.924 830.913L598.829 896.37Z" fill="#FFB6B6"/>
<path d="M603.46 913.936L551.227 925.81L551.077 925.15C549.85 919.763 550.816 914.11 553.761 909.434C556.706 904.758 561.389 901.442 566.781 900.216L566.782 900.216L574.676 890.815L594.125 894L598.684 892.964L603.46 913.936Z" fill="#2F2E41"/>
<path d="M872.834 586.272L882.171 600.963L829.896 643.942L816.113 622.257L872.834 586.272Z" fill="#FFB6B6"/>
<path d="M887.845 576.02L916.562 621.199L915.99 621.561C911.322 624.523 905.668 625.511 900.271 624.307C894.874 623.104 890.176 619.808 887.212 615.145L887.211 615.144L875.699 610.868L872.178 591.494L869.672 587.551L887.845 576.02Z" fill="#2F2E41"/>
<path d="M331.395 429.2L327.2 404.907L390.98 376.132L404.754 351.768C404.31 349.63 404.465 347.411 405.203 345.356C405.942 343.301 407.234 341.489 408.938 340.122C410.642 338.754 412.692 337.884 414.86 337.607C417.028 337.33 419.23 337.657 421.224 338.552C423.218 339.448 424.925 340.876 426.157 342.68C427.389 344.483 428.098 346.592 428.206 348.773C428.314 350.954 427.816 353.122 426.768 355.039C425.72 356.955 424.162 358.544 422.266 359.631L399.608 394.63L331.395 429.2Z" fill="#A0616A"/>
<path d="M312.007 409.341L340.729 394.683L348.333 423.205L328.382 437.98L312.007 409.341Z" fill="#FFC000"/>
<path d="M247.557 894.16L264.923 894.159L273.184 827.235L247.552 827.237L247.557 894.16Z" fill="#A0616A"/>
<path d="M270.702 895.722V883.959L266.136 884.238L247.551 885.338L243.25 885.602L239.961 924.996L239.785 927.108H252.116L252.513 925.011L254.304 915.478L258.928 925.011L259.941 927.108H292.634C294.579 927.096 296.441 926.317 297.815 924.942C299.19 923.566 299.965 921.704 299.974 919.76C301.354 913.322 274.166 899.403 270.702 895.722Z" fill="#2F2E41"/>
<path d="M41.4088 628.566L37.3604 645.44L100.574 669.07L106.548 644.168L41.4088 628.566Z" fill="#A0616A"/>
<path d="M35.8665 650.69L47.3154 653.432L48.1087 648.932L51.3713 630.619L52.1172 626.379L14.54 613.999L12.5254 613.335L9.65025 625.316L11.5992 626.19L20.4607 630.152L10.1034 632.422L7.82588 632.917L0.203303 664.679C-0.238318 666.572 0.0853023 668.563 1.10395 670.219C2.1226 671.875 3.754 673.062 5.64387 673.524C11.5891 676.366 31.4755 653.197 35.8665 650.69Z" fill="#2F2E41"/>
<path d="M274.409 461.032L252.055 450.593L207.477 504.489L180.325 511.35C178.377 510.359 176.193 509.924 174.014 510.095C171.835 510.265 169.746 511.034 167.977 512.316C166.208 513.599 164.828 515.345 163.99 517.361C163.151 519.378 162.887 521.587 163.227 523.744C163.566 525.901 164.496 527.923 165.913 529.585C167.33 531.248 169.18 532.487 171.258 533.165C173.335 533.843 175.56 533.934 177.686 533.429C179.812 532.923 181.757 531.84 183.306 530.299L223.067 517.675L274.409 461.032Z" fill="#A0616A"/>
<path d="M591.321 261.513C586.582 261.513 581.951 260.109 578.011 257.479C574.071 254.849 571 251.111 569.187 246.737C567.374 242.364 566.899 237.551 567.824 232.908C568.748 228.266 571.03 224.001 574.38 220.653C577.731 217.306 582 215.026 586.647 214.103C591.294 213.179 596.111 213.653 600.489 215.465C604.866 217.276 608.608 220.344 611.24 224.28C613.873 228.216 615.278 232.844 615.278 237.578C615.271 243.924 612.744 250.008 608.253 254.495C603.762 258.982 597.672 261.506 591.321 261.513ZM591.321 216.39C587.126 216.39 583.026 217.632 579.538 219.961C576.051 222.289 573.332 225.598 571.727 229.47C570.122 233.341 569.702 237.601 570.52 241.712C571.339 245.822 573.358 249.597 576.324 252.56C579.29 255.524 583.069 257.542 587.183 258.359C591.297 259.177 595.561 258.757 599.437 257.153C603.312 255.55 606.624 252.834 608.954 249.349C611.285 245.865 612.529 241.769 612.529 237.578C612.522 231.96 610.286 226.575 606.31 222.603C602.334 218.63 596.943 216.396 591.321 216.39Z" fill="#E6E6E6"/>
<path d="M589.63 246.595C589.582 246.595 589.534 246.593 589.486 246.591C589.06 246.571 588.644 246.458 588.267 246.262C587.889 246.066 587.558 245.791 587.296 245.455L583.522 240.607C583.284 240.301 583.109 239.952 583.006 239.578C582.903 239.204 582.874 238.814 582.922 238.429C582.971 238.044 583.094 237.673 583.286 237.336C583.478 236.999 583.734 236.703 584.04 236.465L584.176 236.359C584.482 236.121 584.833 235.945 585.207 235.842C585.581 235.739 585.972 235.711 586.357 235.759C586.742 235.807 587.114 235.931 587.452 236.123C587.789 236.314 588.085 236.571 588.323 236.877C588.514 237.121 588.755 237.322 589.031 237.465C589.306 237.607 589.609 237.689 589.919 237.704C590.229 237.719 590.538 237.667 590.826 237.552C591.114 237.437 591.374 237.26 591.587 237.036L599.249 228.954C599.789 228.386 600.532 228.055 601.315 228.034C602.098 228.013 602.858 228.303 603.427 228.84L603.553 228.96C603.834 229.226 604.061 229.546 604.219 229.9C604.377 230.254 604.464 230.636 604.474 231.023C604.485 231.411 604.419 231.796 604.28 232.158C604.141 232.52 603.932 232.852 603.665 233.133L591.774 245.673C591.498 245.964 591.166 246.196 590.797 246.355C590.429 246.513 590.031 246.595 589.63 246.595Z" fill="#E6E6E6"/>
<path d="M471.725 551.298C466.987 551.298 462.355 549.894 458.416 547.264C454.476 544.634 451.405 540.896 449.592 536.522C447.779 532.149 447.304 527.336 448.229 522.693C449.153 518.05 451.435 513.785 454.785 510.438C458.136 507.091 462.404 504.811 467.052 503.888C471.699 502.964 476.516 503.438 480.893 505.25C485.271 507.061 489.013 510.129 491.645 514.065C494.278 518.001 495.683 522.629 495.683 527.363C495.675 533.708 493.149 539.792 488.658 544.279C484.167 548.767 478.077 551.291 471.725 551.298ZM471.725 506.174C467.531 506.174 463.431 507.417 459.943 509.745C456.455 512.073 453.737 515.383 452.132 519.254C450.527 523.126 450.107 527.386 450.925 531.496C451.743 535.606 453.763 539.382 456.729 542.345C459.695 545.308 463.474 547.326 467.588 548.144C471.702 548.961 475.966 548.542 479.841 546.938C483.717 545.334 487.029 542.619 489.359 539.134C491.689 535.65 492.933 531.553 492.933 527.363C492.927 521.745 490.69 516.36 486.715 512.387C482.739 508.415 477.348 506.181 471.725 506.174Z" fill="#E6E6E6"/>
<path d="M470.035 536.38C469.987 536.38 469.938 536.378 469.89 536.376C469.465 536.355 469.049 536.243 468.671 536.047C468.293 535.851 467.963 535.575 467.701 535.239L463.927 530.392C463.689 530.086 463.513 529.736 463.41 529.362C463.307 528.989 463.279 528.598 463.327 528.214C463.375 527.829 463.499 527.457 463.691 527.12C463.882 526.783 464.139 526.487 464.445 526.249L464.581 526.144C464.887 525.906 465.237 525.73 465.612 525.627C465.986 525.524 466.377 525.496 466.762 525.544C467.147 525.592 467.519 525.716 467.856 525.907C468.194 526.099 468.49 526.355 468.728 526.662C468.919 526.906 469.16 527.107 469.435 527.249C469.711 527.392 470.014 527.474 470.324 527.489C470.633 527.504 470.943 527.452 471.231 527.337C471.519 527.221 471.778 527.045 471.992 526.82L479.654 518.738C480.194 518.171 480.936 517.84 481.72 517.819C482.503 517.797 483.262 518.087 483.832 518.625L483.957 518.745C484.239 519.011 484.466 519.331 484.624 519.685C484.782 520.039 484.869 520.42 484.879 520.808C484.89 521.195 484.824 521.581 484.685 521.943C484.546 522.305 484.337 522.636 484.07 522.918L472.179 535.458C471.903 535.749 471.571 535.981 471.202 536.139C470.833 536.298 470.436 536.38 470.035 536.38Z" fill="#E6E6E6"/>
<path d="M209.166 228.552C204.428 228.552 199.796 227.148 195.856 224.518C191.916 221.888 188.846 218.15 187.032 213.776C185.219 209.403 184.745 204.59 185.669 199.947C186.593 195.304 188.875 191.039 192.226 187.692C195.576 184.345 199.845 182.065 204.492 181.141C209.139 180.218 213.956 180.692 218.334 182.504C222.712 184.315 226.453 187.383 229.086 191.319C231.718 195.255 233.123 199.883 233.123 204.617C233.116 210.962 230.59 217.046 226.098 221.533C221.607 226.021 215.518 228.545 209.166 228.552ZM209.166 183.428C204.971 183.428 200.871 184.671 197.383 186.999C193.896 189.327 191.178 192.637 189.572 196.508C187.967 200.38 187.547 204.64 188.366 208.75C189.184 212.86 191.204 216.636 194.17 219.599C197.136 222.562 200.915 224.58 205.028 225.398C209.142 226.215 213.407 225.796 217.282 224.192C221.157 222.588 224.469 219.873 226.8 216.388C229.13 212.904 230.374 208.807 230.374 204.617C230.367 198.999 228.131 193.614 224.155 189.641C220.179 185.669 214.789 183.435 209.166 183.428Z" fill="#E6E6E6"/>
<path d="M207.475 213.634C207.427 213.634 207.379 213.632 207.331 213.63C206.905 213.609 206.49 213.497 206.112 213.301C205.734 213.105 205.403 212.829 205.142 212.493L201.368 207.646C201.129 207.34 200.954 206.99 200.851 206.616C200.748 206.243 200.72 205.852 200.768 205.468C200.816 205.083 200.939 204.711 201.131 204.374C201.323 204.037 201.579 203.741 201.886 203.503L202.021 203.398C202.328 203.16 202.678 202.984 203.052 202.881C203.426 202.778 203.817 202.75 204.203 202.798C204.588 202.846 204.96 202.97 205.297 203.161C205.634 203.353 205.931 203.609 206.169 203.916C206.359 204.16 206.601 204.361 206.876 204.503C207.151 204.646 207.454 204.728 207.764 204.743C208.074 204.758 208.383 204.706 208.671 204.591C208.959 204.475 209.219 204.299 209.432 204.074L217.095 195.992C217.634 195.425 218.377 195.094 219.16 195.073C219.943 195.051 220.703 195.341 221.272 195.879L221.398 195.999C221.68 196.265 221.906 196.585 222.064 196.939C222.222 197.293 222.309 197.674 222.32 198.062C222.33 198.449 222.264 198.835 222.125 199.197C221.986 199.559 221.778 199.89 221.511 200.172L209.619 212.712C209.344 213.003 209.011 213.235 208.642 213.394C208.274 213.552 207.877 213.634 207.475 213.634Z" fill="#E6E6E6"/>
<path d="M400.967 640.291C345.413 640.291 281.568 578.7 225.081 607.963C54.053 696.565 77.5959 548.303 28.461 493.163L30.0741 489.931C84.2889 538.498 151.978 578.013 225.824 604.203C292.557 627.873 359.791 638.84 420.232 635.946L420.337 639.831C413.954 640.139 407.497 640.292 400.967 640.291Z" fill="#F2F2F2"/>
<path d="M324.761 223.866C331.175 223.866 336.374 216.901 336.374 208.309C336.374 199.718 331.175 192.752 324.761 192.752C318.348 192.752 313.149 199.718 313.149 208.309C313.149 216.901 318.348 223.866 324.761 223.866Z" fill="#E6E6E6"/>
<path d="M458.882 466.558C453.573 470.092 448.14 461.681 453.551 458.304C458.859 454.77 464.293 463.181 458.882 466.558Z" fill="#E6E6E6"/>
<path d="M428.324 183.388C436.676 183.388 443.446 176.625 443.446 168.281C443.446 159.938 436.676 153.174 428.324 153.174C419.973 153.174 413.203 159.938 413.203 168.281C413.203 176.625 419.973 183.388 428.324 183.388Z" fill="#FFC000"/>
<path opacity="0.3" d="M481.213 251.068L567.257 0L472.775 248.062C472.308 248.651 471.988 249.343 471.842 250.08C471.695 250.817 471.727 251.578 471.934 252.3C472.141 253.023 472.518 253.685 473.032 254.233C473.547 254.781 474.185 255.199 474.894 255.451C475.602 255.703 476.36 255.783 477.106 255.684C477.851 255.585 478.563 255.31 479.18 254.881C479.798 254.453 480.305 253.883 480.658 253.22C481.012 252.557 481.202 251.819 481.213 251.068H481.213Z" fill="#F0F0F0"/>
<path d="M394.362 556.941C402.487 556.941 409.074 550.36 409.074 542.243C409.074 534.125 402.487 527.544 394.362 527.544C386.237 527.544 379.65 534.125 379.65 542.243C379.65 550.36 386.237 556.941 394.362 556.941Z" fill="#F2F2F2"/>
<path d="M251.872 547.849C251.872 547.849 215.196 571.71 224.894 587.565C225.228 588.112 181.084 646.361 181.084 646.361L97.7493 641.076L94.8132 668.942L169.003 690.409C169.003 690.409 187.153 703.731 201.174 689.053C215.196 674.375 261.899 629.427 261.899 629.427L264.151 720.176L240.707 845.927L275.712 843.71L309.784 717.55L322.36 574.643L251.872 547.849Z" fill="#2F2E41"/>
<path d="M277.997 404.648L262.574 416.326L244.995 453.81L261.899 476.747C261.899 476.747 276.118 501.367 253.358 525.21C230.598 549.053 213.121 574.519 231.338 573.61C249.555 572.7 323.337 610.193 323.822 579.476C324.308 548.76 325.29 525.21 325.29 525.21L344.634 476.193C344.634 476.193 356.159 446.951 348.067 438.198C339.976 429.445 329.142 418.26 329.142 418.26L309.441 398.576H291.651L277.997 404.648Z" fill="#FFC000"/>
<path d="M306.788 332.626C341.389 352.297 312.984 404.199 277.738 385.717C243.138 366.046 271.544 314.144 306.788 332.626Z" fill="#A0616A"/>
<path d="M325.29 343.533C322.866 346.683 317.801 345.206 307.881 347.454C307.903 344.095 307.515 340.745 306.725 337.48C305.987 341.523 304.369 345.354 301.987 348.704C293.373 349.659 303.932 375.801 299.522 395.022C293.84 354.472 281.888 365.096 287.926 373.139C291.791 378.288 289.215 393.734 277.619 386.011C258.486 395.095 231.236 349.969 261.438 328.805C260.898 317.365 273.639 315.558 281.484 319.075C300.524 304.905 322.277 323.062 325.29 343.533Z" fill="#2F2E41"/>
<path d="M236.512 313.944C228.809 361.264 187.519 305.242 168.105 351.809C162.001 368.673 172.474 380.736 179.099 394.734C180.611 406.238 165.632 412.074 164.063 422.663C163.626 446.94 202.828 445.454 213.787 430.138C225.048 414.104 211.601 392.593 218.369 375.383C227.882 351.489 266.57 351.312 269.94 323.514C263.413 314.228 245.861 303.592 236.512 313.944Z" fill="#2F2E41"/>
<path d="M267.719 318.568C267.467 318.674 267.215 318.78 266.989 318.899H266.976C266.764 319.006 266.552 319.111 266.339 319.231C266.313 319.244 266.3 319.257 266.273 319.271C265.995 319.006 265.716 318.74 265.424 318.475C265.349 318.907 265.367 319.35 265.477 319.774L265.517 319.933C265.782 320.211 266.061 320.476 266.353 320.755C266.618 320.556 266.87 320.344 267.135 320.145C267.294 320.013 267.454 319.88 267.626 319.748C267.653 319.403 267.692 319.005 267.732 318.568L267.719 318.568ZM275.704 303.832C269.788 302.481 267.878 310.206 267.308 313.93C265.159 300.413 256.219 304.667 259.31 313.89C260.295 316.621 261.845 319.113 263.859 321.205C264.138 321.523 264.443 321.841 264.761 322.159C264.403 324.015 266.207 323.537 268.647 321.828C270.449 320.548 272.116 319.087 273.621 317.468C278.489 312.366 282.283 305.542 275.704 303.832ZM275.889 311.439C274.064 313.79 272.017 315.96 269.775 317.919C269.072 318.555 268.355 319.165 267.626 319.748C267.613 319.867 267.613 319.973 267.599 320.066C267.548 320.194 267.486 320.318 267.414 320.437C266.671 321.775 265.835 321.046 265.517 319.933C265.49 319.893 265.451 319.853 265.424 319.814C264.364 318.72 263.442 317.501 262.679 316.183C257.201 306.695 266.021 300.241 265.583 317.959C265.503 318.121 265.449 318.296 265.424 318.475C265.349 318.907 265.367 319.35 265.477 319.774L265.517 319.933C265.782 320.211 266.061 320.476 266.353 320.755C266.618 320.556 266.87 320.344 267.135 320.145C267.294 320.013 267.454 319.88 267.626 319.748C267.653 319.403 267.692 319.006 267.732 318.568V318.555C268.077 315.004 269.019 308.616 270.756 306.88C274.576 303.952 279.524 307.119 275.889 311.439ZM267.719 318.568C267.467 318.674 267.215 318.78 266.989 318.899H266.976C266.764 319.006 266.552 319.111 266.339 319.231C266.313 319.244 266.3 319.257 266.273 319.271C265.995 319.006 265.716 318.74 265.424 318.475C265.349 318.907 265.367 319.35 265.477 319.774L265.517 319.933C265.782 320.211 266.061 320.476 266.353 320.755C266.618 320.556 266.87 320.344 267.135 320.145C267.294 320.013 267.454 319.88 267.626 319.748C267.653 319.403 267.692 319.005 267.732 318.568L267.719 318.568Z" fill="#2F2E41"/>
<path d="M587.524 579.456L574.744 612.752L514.798 730.891L567.473 868.322L594.658 861.152L572.251 730.891L636.535 652.855L712.878 704.586C712.878 704.586 746.736 730.994 759.617 705.959C772.497 680.925 855.843 627.676 855.843 627.676L835.223 605.702L739.246 650.576L673.002 557.422L587.524 579.456Z" fill="#2F2E41"/>
<path d="M652.004 422.404L630.968 399.824L594.883 394.864L550.669 425.788L551.114 460.017L572.971 540.675C572.971 540.675 564.646 598.624 587.9 598.043C611.154 597.462 623.829 585.879 633.3 588.237C642.771 590.595 683.031 600.629 685.583 590.118C688.134 579.608 701.697 587.134 701.102 577.19C700.506 567.247 664.386 495.574 664.386 495.574L673.367 423.895L652.004 422.404Z" fill="#FFC000"/>
<path d="M785.196 318.465C785.384 320.337 785.159 322.228 784.537 324.005C783.914 325.781 782.91 327.399 781.594 328.746C780.277 330.092 778.682 331.134 776.919 331.797C775.156 332.461 773.269 332.731 771.391 332.587L723.016 424.503L710.029 404.584L759.474 317.835C759.925 314.699 761.512 311.836 763.934 309.791C766.356 307.745 769.445 306.658 772.615 306.736C775.786 306.813 778.818 308.05 781.136 310.212C783.455 312.374 784.899 315.31 785.196 318.465Z" fill="#FFB6B6"/>
<path d="M632.906 439.494C632.906 439.494 630.987 455.844 649.41 459.892C667.834 463.939 718.875 434.801 727.243 430.351C729.863 428.957 733.419 422.126 737.067 413.4C738.704 409.482 740.361 405.183 741.96 400.822C742.885 398.298 747.315 397.609 748.187 395.106C749.054 392.617 746.363 388.314 747.149 385.968C750.876 374.833 753.516 365.999 753.516 365.999L741.306 343.083C724.228 352.103 715.469 371.971 709.027 394.861L632.906 439.494Z" fill="#FFC000"/>
<path d="M417.744 339.573C418.031 341.433 418.723 343.207 419.77 344.771C420.818 346.335 422.196 347.651 423.807 348.626C425.419 349.6 427.225 350.21 429.097 350.412C430.97 350.613 432.865 350.402 434.647 349.794L504.507 426.69L512.092 404.157L442.49 332.532C441.268 329.608 439.014 327.233 436.157 325.858C433.3 324.483 430.037 324.203 426.987 325.071C423.937 325.939 421.311 327.895 419.608 330.567C417.904 333.24 417.241 336.444 417.744 339.573Z" fill="#FFB6B6"/>
<path d="M595.505 418.674C595.505 418.674 601.458 434.024 584.635 442.549C567.812 451.074 511.096 435.625 501.88 433.408C498.994 432.714 493.84 426.99 488.122 419.453C485.555 416.07 482.875 412.321 480.234 408.499C478.706 406.287 474.244 406.727 472.773 404.522C471.31 402.329 472.838 397.49 471.49 395.415C465.092 385.566 460.323 377.673 460.323 377.673L466.405 352.434C485.198 356.897 498.655 373.943 510.626 394.494L595.505 418.674Z" fill="#FFC000"/>
<path d="M613.646 389.12C632.607 389.12 647.979 373.763 647.979 354.818C647.979 335.874 632.607 320.516 613.646 320.516C594.684 320.516 579.312 335.874 579.312 354.818C579.312 373.763 594.684 389.12 613.646 389.12Z" fill="#FFB6B6"/>
<path d="M652.837 335.178C649.226 329.596 642.449 325.875 635.878 326.921C635.267 322.732 633.517 318.79 630.819 315.526C628.12 312.262 624.577 309.8 620.576 308.408C616.574 307.017 612.267 306.748 608.123 307.633C603.979 308.518 600.158 310.521 597.075 313.425C596.061 312.712 594.88 312.272 593.646 312.149C592.412 312.026 591.167 312.223 590.032 312.721C587.771 313.748 585.804 315.326 584.311 317.309C580.541 322.007 578.116 327.637 577.295 333.602C576.474 339.566 577.287 345.642 579.647 351.181C578.844 348.265 581.77 345.521 584.725 344.867C587.681 344.213 590.781 344.832 593.779 344.406C597.62 343.859 601.073 341.633 604.921 341.132C608.184 340.92 611.457 341.34 614.56 342.369C617.662 343.398 620.931 343.837 624.195 343.662C627.433 343.278 631.605 355.539 631.549 364.175C631.538 365.811 631.876 367.913 633.476 368.26C635.448 368.687 636.59 365.969 638.467 365.228C639.331 364.981 640.259 365.078 641.053 365.5C641.847 365.922 642.447 366.636 642.725 367.49C642.961 368.359 642.986 369.272 642.798 370.153C642.61 371.034 642.215 371.857 641.644 372.554C640.491 373.936 639.121 375.123 637.589 376.068L638.362 376.71C639.096 377.485 640.076 377.98 641.135 378.112C642.194 378.243 643.266 378.002 644.167 377.431C645.939 376.232 647.373 374.6 648.335 372.69C651.956 367.094 654.545 360.896 655.979 354.388C657.189 347.853 656.449 340.76 652.837 335.178Z" fill="#2F2E41"/>
<path d="M906.836 470.466C862.551 503.976 774.435 493.39 747.09 550.791C664.298 724.587 593.467 592.196 520.976 577.879L520.309 574.329C592.877 580.343 670.716 571.013 745.41 547.346C812.912 525.96 873.136 494.147 919.568 455.381L922 458.415C917.098 462.511 912.043 466.528 906.836 470.466Z" fill="#F2F2F2"/>
<path d="M719.6 925.658C718.545 928.779 116.344 928.779 115.206 925.666C116.259 922.537 718.461 922.537 719.6 925.658Z" fill="#CCCCCC"/>
</svg>
