<svg width="1170" height="1017" viewBox="0 0 1170 1017" fill="none" xmlns="http://www.w3.org/2000/svg">
<path d="M378.191 1014.32L451.385 998.458L536.196 980.065C536.196 980.065 540.788 994.108 547.23 1014.32H378.191Z" fill="#2F2E41"/>
<path d="M563.472 1005.21C563.472 1005.21 562.787 1008.87 561.382 1014.32H219.672C215.903 1002.84 214.224 991.025 218.713 981.263C219.468 979.558 220.422 977.948 221.557 976.468C222.397 975.304 223.338 974.215 224.367 973.214C231.083 966.569 235.195 952.252 237.662 935.948C240.624 913.653 241.85 891.162 241.329 868.677C241.363 868.643 241.363 868.643 241.329 868.643C241.26 863.334 241.123 860.148 241.123 860.148C241.123 860.148 239.821 840.522 238.348 810.86C238.382 810.86 238.348 810.825 238.348 810.825C234.304 730.779 228.821 577.535 243.042 536.912C243.949 533.488 245.788 530.382 248.353 527.938C267.498 514.127 287.869 502.1 309.212 492.008C310.445 491.46 311.096 491.152 311.096 491.152L358.008 490.261L416.261 479.986L456.731 472.587C456.731 472.587 459.712 472.792 464.372 473.443C479.861 475.567 513.922 482.52 518.72 502.66C518.72 502.695 518.754 502.729 518.754 502.763C519.36 505.403 519.465 508.134 519.062 510.812C514.471 544.379 546.887 750.542 556.756 760.852C566.625 771.162 564.021 808.839 539.622 832.781C535.324 837.209 532.192 842.635 530.508 848.571C521.29 878.199 535.75 926.597 549.903 949.238C560.185 966.01 564.932 985.589 563.472 1005.21Z" fill="#3F3D56"/>
<path d="M750.083 346.118L749.101 310.276L747.788 262.212L709.452 260.441L704.086 308.197L699.085 352.574L750.083 346.118Z" fill="#A0616A"/>
<path d="M357.427 497.881L411.206 555.571C411.206 555.571 639.075 592.358 640.599 573.042C642.124 553.726 627.114 548.132 651.718 549.848C676.323 551.565 682.235 569.038 685.985 552.327C689.734 535.616 669.104 535.206 692.991 532.837C716.877 530.468 769.049 322.005 769.049 322.005L685.828 335.422C685.828 335.422 669.652 436.215 659.509 449.096C649.366 461.976 639.188 471.219 632.931 471.777C626.674 472.334 357.427 497.881 357.427 497.881Z" fill="#3F3D56"/>
<path d="M388.269 423.297C431.902 423.297 467.273 387.94 467.273 344.326C467.273 300.712 431.902 265.356 388.269 265.356C344.635 265.356 309.264 300.712 309.264 344.326C309.264 387.94 344.635 423.297 388.269 423.297Z" fill="#A0616A"/>
<path d="M326.702 412.338L358.022 418.332C358.022 418.332 328.895 371.338 330.608 349.828C332.322 328.318 355.76 320.611 355.76 320.611C355.76 320.611 368.748 323.42 382.42 324.996C384.058 320.387 386.183 315.966 388.759 311.808C389.266 317.176 391.644 322.195 395.476 325.989C400.486 326.419 405.533 325.836 410.313 324.276C415.728 321.81 415.625 317.529 413.843 313.521C439.92 314.788 464.626 327.462 464.626 327.462C465.414 316.946 465.012 306.375 463.427 295.95C462.673 295.744 461.919 295.505 461.165 295.265C456.495 293.788 451.993 291.825 447.733 289.408C452.474 288.779 456.903 286.697 460.412 283.448C457.533 275.022 452.941 267.726 445.711 264.164C438.735 260.754 431.108 258.882 423.345 258.675C415.583 258.468 407.866 259.931 400.718 262.965C400.718 262.965 417.475 250.737 411.307 245.736C410.896 246.147 410.484 246.524 410.039 246.901C409.456 247.38 408.805 247.894 408.189 248.374C404.385 251.456 398.697 247.107 397.943 242.448C397.862 241.86 397.747 241.277 397.6 240.701C397.497 240.222 397.36 239.742 397.223 239.297C397.107 238.902 396.97 238.513 396.812 238.132C385.401 235.392 350.894 246.524 337.633 271.048C337.633 271.049 244.941 315.576 326.702 412.338Z" fill="#3F3D56"/>
<path d="M288.824 1014.32H244.55L243.041 1011.82L221.557 976.468L209.699 956.943L237.662 935.949L250.821 926.084L279.844 993.456L288.824 1014.32Z" fill="#A0616A"/>
<path d="M309.226 492.008L419.702 747.151L464.386 473.443C459.726 472.793 456.745 472.587 456.745 472.587L437.727 435.664L328.792 441.315L311.11 491.152C311.11 491.152 310.459 491.46 309.226 492.008Z" fill="#FFC000"/>
<path d="M454.571 1014.32H367.567L423.116 856.757L451.384 998.458L454.571 1014.32Z" fill="#FFC000"/>
<path opacity="0.5" d="M983.554 530.814H733.463C693.812 530.814 661.667 562.944 661.667 602.578V692.954C661.667 732.589 693.812 764.719 733.463 764.719H983.554C1023.21 764.719 1055.35 732.589 1055.35 692.954V602.578C1055.35 562.944 1023.21 530.814 983.554 530.814Z" fill="white"/>
<path d="M983.554 767.401H733.463C713.717 767.379 694.786 759.528 680.823 745.571C666.86 731.614 659.006 712.691 658.983 692.953V602.578C659.006 582.84 666.86 563.917 680.823 549.96C694.786 536.004 713.717 528.153 733.463 528.13H983.554C1003.3 528.153 1022.23 536.004 1036.19 549.96C1050.16 563.917 1058.01 582.84 1058.03 602.578V692.953C1058.01 712.691 1050.16 731.614 1036.19 745.571C1022.23 759.528 1003.3 767.379 983.554 767.401ZM733.463 533.497C715.14 533.517 697.574 540.802 684.617 553.753C671.661 566.704 664.373 584.263 664.352 602.578V692.953C664.373 711.268 671.661 728.827 684.617 741.778C697.574 754.729 715.14 762.014 733.463 762.035H983.554C1001.88 762.014 1019.44 754.729 1032.4 741.778C1045.36 728.827 1052.64 711.268 1052.67 692.953V602.578C1052.64 584.263 1045.36 566.704 1032.4 553.753C1019.44 540.802 1001.88 533.518 983.554 533.497L733.463 533.497Z" fill="white"/>
<path d="M858.186 714.034C889.855 714.034 915.527 688.372 915.527 656.718C915.527 625.063 889.855 599.402 858.186 599.402C826.518 599.402 800.845 625.063 800.845 656.718C800.845 688.372 826.518 714.034 858.186 714.034Z" fill="#A0616A"/>
<path d="M870.761 713.709C863.72 698.018 901.864 665.465 877.425 663.814C877.425 663.814 861.358 635.659 851.157 643.207C839.344 651.947 822.133 636.073 812.02 625.453C814.173 623.717 816.103 621.724 817.769 619.519C814.556 620.108 811.301 620.449 808.035 620.538C806.823 618.745 805.975 616.732 805.54 614.612C805.066 612.606 805.217 610.503 805.973 608.585C806.729 606.668 808.054 605.028 809.771 603.885C813.476 601.82 818.21 603.081 822.17 601.601C822.665 601.359 823.093 601.002 823.419 600.559C823.745 600.116 823.958 599.6 824.041 599.057C824.338 597.777 824.914 596.578 825.727 595.547C826.541 594.515 827.572 593.675 828.747 593.087C829.922 592.499 831.213 592.177 832.527 592.145C833.84 592.112 835.145 592.37 836.348 592.899C836.807 593.16 837.323 593.303 837.85 593.317C840.611 593.141 843.341 592.638 845.982 591.817C843.018 590.431 840.164 588.822 837.444 587.003C836.885 586.623 836.326 586.244 835.779 585.843C838.241 583.843 841.107 582.399 844.179 581.609C847.251 580.819 850.458 580.701 853.58 581.264C860.127 582.537 866.438 584.815 872.288 588.015C875.756 589.704 879.215 591.389 882.668 593.07C890.122 596.35 897.207 600.409 903.806 605.179C910.689 610.588 916.293 617.449 920.217 625.273C924.141 633.097 926.287 641.69 926.504 650.439C926.82 667.894 911.88 715.727 870.761 713.709Z" fill="#2F2E41"/>
<path opacity="0.5" d="M517.389 758.945H267.298C227.646 758.945 195.502 791.075 195.502 830.709V921.085C195.502 960.72 227.646 992.85 267.298 992.85H517.389C557.041 992.85 589.185 960.72 589.185 921.085V830.709C589.185 791.075 557.041 758.945 517.389 758.945Z" fill="white"/>
<path d="M517.389 995.533H267.298C247.552 995.511 228.62 987.66 214.657 973.703C200.694 959.746 192.84 940.823 192.818 921.085V830.71C192.84 810.972 200.694 792.049 214.657 778.092C228.62 764.135 247.552 756.284 267.298 756.262H517.389C537.135 756.284 556.067 764.135 570.03 778.092C583.993 792.049 591.847 810.972 591.869 830.71V921.085C591.847 940.823 583.992 959.746 570.029 973.703C556.066 987.66 537.135 995.511 517.389 995.533ZM267.298 761.628C248.975 761.649 231.408 768.934 218.452 781.885C205.496 794.835 198.207 812.394 198.187 830.71V921.085C198.207 939.4 205.496 956.959 218.452 969.91C231.408 982.861 248.975 990.145 267.298 990.166H517.389C535.712 990.145 553.278 982.861 566.235 969.91C579.191 956.959 586.479 939.4 586.5 921.085V830.71C586.479 812.395 579.191 794.836 566.235 781.885C553.278 768.934 535.712 761.649 517.389 761.628H267.298Z" fill="white"/>
<path d="M396.184 950.494C428.361 950.494 454.445 924.421 454.445 892.258C454.445 860.095 428.361 834.022 396.184 834.022C364.007 834.022 337.922 860.095 337.922 892.258C337.922 924.421 364.007 950.494 396.184 950.494Z" fill="#FFB6B6"/>
<path d="M358.23 907.221C357.505 906.977 356.737 906.892 355.976 906.971C355.216 907.05 354.481 907.291 353.822 907.678C353.163 908.065 352.594 908.589 352.155 909.214C351.715 909.839 351.415 910.552 351.275 911.303C351.083 912.845 351.208 914.41 351.642 915.903C352.076 917.395 352.811 918.783 353.801 919.981C355.791 922.363 357.573 924.909 359.13 927.593C359.89 928.95 360.246 930.496 360.156 932.049C360.067 933.602 359.535 935.097 358.624 936.358C357.632 937.324 356.385 937.989 355.03 938.274C353.674 938.56 352.265 938.456 350.967 937.973C348.382 936.964 346.097 935.313 344.326 933.177C333.188 921.098 321.569 901.045 327.263 885.635C327.735 883.988 327.923 882.272 327.818 880.562C327.927 878.601 328.291 875.648 326.443 874.981C321.287 873.12 335.754 842.995 358.084 836.441C356.996 826.155 410.716 811.359 407.784 824.272C407.257 826.591 412.445 825.331 414.82 825.459C433.047 826.445 453.631 831.024 451.971 852.139C451.328 860.316 454.712 858.43 457.429 866.17C453.197 868.692 451.808 874.223 448.545 870.532C445.282 866.841 442.495 862.218 437.818 860.668C432.838 859.017 427.435 861.486 423.187 864.565C418.94 867.644 415.043 871.469 410.05 873.082C404.451 874.89 398.345 873.632 392.506 874.364C384.176 875.793 376.654 880.21 371.35 886.788C366.122 893.326 361.709 900.476 358.209 908.081" fill="#2F2E41"/>
<path d="M325.468 527.305L246.654 530.73C246.654 530.73 130.147 729.392 143.854 743.093C157.56 756.794 171.563 749.016 154.282 766.606C137 784.195 119.867 777.345 130.147 791.046C140.427 804.746 154.134 789.329 140.427 809.026C126.72 828.723 238.088 1014.32 238.088 1014.32L286.061 990.34C286.061 990.34 239.377 867.721 236.162 851.647C232.948 835.573 232.524 821.834 236.162 816.715C239.801 811.597 325.468 527.305 325.468 527.305Z" fill="#3F3D56"/>
<path d="M729.095 589.743C739.3 589.743 747.573 581.473 747.573 571.273C747.573 561.072 739.3 552.803 729.095 552.803C718.89 552.803 710.617 561.072 710.617 571.273C710.617 581.473 718.89 589.743 729.095 589.743Z" fill="#FFC000"/>
<path d="M726.574 580.886C726.255 580.886 725.941 580.811 725.655 580.668C725.37 580.526 725.122 580.319 724.93 580.063L719.889 573.345C719.725 573.129 719.605 572.883 719.537 572.621C719.468 572.359 719.452 572.086 719.49 571.818C719.527 571.549 719.617 571.291 719.755 571.058C719.893 570.824 720.075 570.62 720.292 570.458C720.509 570.295 720.756 570.177 721.019 570.11C721.281 570.044 721.555 570.029 721.823 570.069C722.091 570.108 722.349 570.2 722.581 570.339C722.814 570.478 723.017 570.662 723.178 570.88L726.476 575.275L734.946 562.575C735.249 562.121 735.719 561.807 736.254 561.7C736.788 561.593 737.343 561.703 737.797 562.005C738.25 562.307 738.565 562.777 738.672 563.311C738.779 563.846 738.669 564.401 738.367 564.854L728.285 579.971C728.103 580.244 727.857 580.47 727.57 580.629C727.282 580.788 726.96 580.876 726.632 580.885L726.574 580.886Z" fill="white"/>
<path d="M278.091 820.513C288.296 820.513 296.569 812.244 296.569 802.043C296.569 791.843 288.296 783.573 278.091 783.573C267.886 783.573 259.613 791.843 259.613 802.043C259.613 812.244 267.886 820.513 278.091 820.513Z" fill="#FFC000"/>
<path d="M275.57 811.656C275.251 811.656 274.936 811.581 274.651 811.439C274.365 811.296 274.117 811.089 273.926 810.834L268.885 804.115C268.721 803.9 268.601 803.654 268.532 803.391C268.464 803.129 268.448 802.856 268.485 802.588C268.523 802.319 268.613 802.061 268.751 801.828C268.888 801.594 269.071 801.391 269.288 801.228C269.505 801.066 269.751 800.947 270.014 800.881C270.277 800.814 270.55 800.8 270.818 800.839C271.087 800.878 271.344 800.97 271.577 801.109C271.81 801.248 272.012 801.432 272.173 801.65L275.471 806.045L283.942 793.345C284.092 793.121 284.284 792.928 284.508 792.778C284.733 792.627 284.984 792.523 285.249 792.47C285.514 792.417 285.786 792.417 286.051 792.469C286.316 792.521 286.568 792.626 286.792 792.775C287.017 792.925 287.21 793.117 287.36 793.341C287.51 793.566 287.615 793.817 287.668 794.082C287.721 794.346 287.721 794.619 287.669 794.883C287.616 795.148 287.512 795.4 287.363 795.624L277.28 810.741C277.098 811.014 276.853 811.24 276.565 811.399C276.277 811.558 275.956 811.646 275.627 811.655L275.57 811.656Z" fill="white"/>
<path d="M994.866 599.602C991.257 599.602 987.73 598.533 984.73 596.529C981.73 594.525 979.392 591.677 978.011 588.345C976.63 585.013 976.269 581.347 976.973 577.809C977.677 574.272 979.414 571.023 981.966 568.473C984.517 565.922 987.768 564.186 991.307 563.482C994.845 562.779 998.513 563.14 1001.85 564.52C1005.18 565.9 1008.03 568.237 1010.03 571.236C1012.04 574.235 1013.11 577.76 1013.11 581.367C1013.11 586.203 1011.19 590.841 1007.77 594.261C1004.34 597.681 999.704 599.602 994.866 599.602Z" fill="#E6E6E6"/>
<path d="M1001.23 585.183L997.411 581.367L1001.23 577.551C1001.4 577.384 1001.53 577.186 1001.62 576.967C1001.71 576.749 1001.76 576.514 1001.76 576.277C1001.76 576.04 1001.72 575.805 1001.63 575.586C1001.54 575.366 1001.4 575.167 1001.24 574.999C1001.07 574.832 1000.87 574.699 1000.65 574.608C1000.43 574.518 1000.2 574.472 999.958 574.472C999.721 574.473 999.486 574.521 999.267 574.613C999.048 574.704 998.85 574.838 998.683 575.007L994.866 578.823L991.048 575.007C990.71 574.671 990.253 574.483 989.777 574.484C989.3 574.485 988.844 574.674 988.507 575.011C988.17 575.348 987.98 575.804 987.98 576.28C987.979 576.756 988.167 577.213 988.503 577.551L992.321 581.367L988.503 585.183C988.334 585.349 988.2 585.548 988.109 585.766C988.017 585.985 987.969 586.22 987.968 586.457C987.968 586.694 988.014 586.929 988.104 587.148C988.195 587.367 988.328 587.567 988.495 587.734C988.663 587.902 988.862 588.035 989.082 588.125C989.301 588.216 989.536 588.262 989.773 588.261C990.011 588.26 990.245 588.213 990.464 588.121C990.683 588.029 990.881 587.895 991.048 587.726L994.866 583.911L998.683 587.726C998.85 587.894 999.048 588.028 999.267 588.119C999.485 588.21 999.72 588.257 999.957 588.257C1000.19 588.257 1000.43 588.211 1000.65 588.121C1000.87 588.03 1001.06 587.897 1001.23 587.73C1001.4 587.563 1001.53 587.364 1001.62 587.145C1001.71 586.927 1001.76 586.692 1001.76 586.456C1001.76 586.219 1001.71 585.985 1001.62 585.766C1001.53 585.548 1001.4 585.35 1001.23 585.183Z" fill="white"/>
<path d="M522.385 819.639C518.777 819.639 515.25 818.57 512.25 816.566C509.25 814.562 506.911 811.714 505.531 808.382C504.15 805.05 503.788 801.384 504.492 797.846C505.196 794.309 506.934 791.06 509.485 788.51C512.036 785.959 515.287 784.223 518.826 783.519C522.365 782.815 526.033 783.177 529.366 784.557C532.7 785.937 535.549 788.274 537.554 791.273C539.558 794.272 540.628 797.797 540.628 801.404C540.628 806.24 538.706 810.878 535.285 814.298C531.864 817.718 527.223 819.639 522.385 819.639Z" fill="#E6E6E6"/>
<path d="M528.747 805.22L524.93 801.404L528.747 797.588C529.081 797.25 529.268 796.794 529.267 796.318C529.265 795.843 529.076 795.388 528.739 795.052C528.403 794.716 527.948 794.527 527.473 794.525C526.997 794.524 526.541 794.71 526.202 795.044L522.385 798.86L518.567 795.044C518.23 794.708 517.772 794.52 517.296 794.521C516.82 794.522 516.363 794.711 516.026 795.048C515.689 795.384 515.5 795.841 515.499 796.317C515.498 796.793 515.687 797.25 516.023 797.588L519.84 801.404L516.023 805.22C515.854 805.386 515.72 805.585 515.628 805.803C515.536 806.022 515.488 806.257 515.488 806.494C515.487 806.731 515.533 806.966 515.623 807.185C515.714 807.404 515.847 807.604 516.015 807.771C516.182 807.939 516.382 808.072 516.601 808.162C516.82 808.253 517.055 808.299 517.293 808.298C517.53 808.297 517.765 808.25 517.984 808.158C518.202 808.066 518.401 807.932 518.567 807.763L522.385 803.948L526.202 807.763C526.54 808.099 526.997 808.287 527.474 808.287C527.95 808.286 528.407 808.096 528.744 807.76C529.081 807.423 529.27 806.967 529.271 806.49C529.271 806.014 529.083 805.557 528.747 805.22Z" fill="white"/>
<path d="M728.781 276.388C746.573 276.388 760.996 261.971 760.996 244.187C760.996 226.403 746.573 211.987 728.781 211.987C710.989 211.987 696.566 226.403 696.566 244.187C696.566 261.971 710.989 276.388 728.781 276.388Z" fill="#A0616A"/>
<path opacity="0.5" d="M982.685 235.599H732.594C692.942 235.599 660.798 267.729 660.798 307.363V397.74C660.798 437.374 692.942 469.504 732.594 469.504H982.685C1022.34 469.504 1054.48 437.374 1054.48 397.74V307.363C1054.48 267.729 1022.34 235.599 982.685 235.599Z" fill="white"/>
<path d="M982.686 472.188H732.593C712.846 472.166 693.915 464.315 679.952 450.358C665.989 436.401 658.135 417.478 658.112 397.74V307.363C658.135 287.625 665.989 268.702 679.952 254.745C693.915 240.789 712.846 232.938 732.593 232.915H982.686C1002.43 232.938 1021.36 240.789 1035.33 254.745C1049.29 268.702 1057.14 287.625 1057.17 307.363V397.74C1057.14 417.478 1049.29 436.401 1035.33 450.358C1021.36 464.315 1002.43 472.166 982.686 472.188ZM732.593 238.282C714.27 238.303 696.703 245.588 683.747 258.538C670.79 271.489 663.502 289.048 663.482 307.363V397.74C663.502 416.055 670.79 433.614 683.747 446.565C696.703 459.516 714.27 466.8 732.593 466.821H982.686C1001.01 466.8 1018.58 459.516 1031.53 446.565C1044.49 433.614 1051.78 416.055 1051.8 397.74V307.363C1051.78 289.048 1044.49 271.489 1031.53 258.538C1018.58 245.588 1001.01 238.303 982.686 238.282H732.593Z" fill="white"/>
<path d="M932.361 359.266C932.525 374.285 937.308 405.555 933.88 420.266L933.326 419.035C930.476 421.293 927.449 423.317 924.273 425.088C921.983 419.519 918.558 414.488 914.215 410.315C914.787 417.219 913.971 424.167 911.814 430.751C898.984 435.367 876.466 420.82 862.508 420.512C840.052 419.999 818.17 414.418 796.719 408.509C789.104 406.416 780.729 403.688 777.28 397.368C773.832 391.048 780.004 384.227 779.6 377.096C776.723 326.303 800.928 317.789 823.958 304.216C829.027 301.229 831.512 294.799 837.239 292.295C845.183 288.828 854.646 290.49 863.288 292.234C861.142 291.527 859.214 290.28 857.689 288.613C856.165 286.945 855.096 284.914 854.585 282.714C854.224 280.557 854.467 278.343 855.285 276.315C856.104 274.288 857.467 272.526 859.224 271.223C861.844 269.509 864.809 268.391 867.909 267.948C871.009 267.505 874.168 267.748 877.164 268.659C883.034 270.494 888.587 273.22 893.627 276.743C897.05 278.619 900.108 281.093 902.659 284.047C903.86 285.445 904.606 287.177 904.797 289.01C904.988 290.843 904.614 292.691 903.726 294.306C902.631 295.691 901.237 296.81 899.648 297.581C898.059 298.352 896.317 298.755 894.551 298.759C891.829 298.838 889.11 298.555 886.463 297.917C898.595 300.909 909.528 307.521 917.808 316.876C928.091 328.838 932.176 344.247 932.361 359.266Z" fill="#2F2E41"/>
<path d="M851.805 408.169C879.29 408.169 901.571 385.897 901.571 358.425C901.571 330.952 879.29 308.681 851.805 308.681C824.32 308.681 802.039 330.952 802.039 358.425C802.039 385.897 824.32 408.169 851.805 408.169Z" fill="#FFB6B6"/>
<path d="M906.107 350.915C900.257 357.994 891.554 357.625 883.815 356.496C881.372 356.147 878.929 355.757 876.487 355.306C876.056 353.931 875.563 352.557 875.009 351.223C872.719 345.654 869.293 340.623 864.951 336.45C865.408 341.906 864.985 347.399 863.698 352.721C859.162 351.674 854.646 350.505 850.151 349.212C846.173 348.566 842.596 346.417 840.159 343.209C837.722 340.002 836.61 335.981 837.055 331.977C830.588 336.901 823.548 341.169 816.158 341.251C811.993 341.143 807.971 339.704 804.684 337.145C801.396 334.587 799.015 331.042 797.889 327.032C796.173 320.538 795.872 313.751 797.006 307.13C797.992 299.23 800.208 290.551 805.545 287.371C809.836 284.786 814.783 286.632 819.196 288.725C828.919 293.389 838.136 299.041 846.702 305.591L846.805 307.745C849.022 297.138 856.35 288.951 864.335 288.13C869.713 287.597 874.968 290.079 880.038 292.583C886.665 295.505 892.827 299.383 898.327 304.093C904.541 309.743 908.858 317.175 910.685 325.37C912.594 334.255 911.157 344.801 906.107 350.915Z" fill="#2F2E41"/>
<path d="M856.844 281.881C857.354 281.923 856.101 281.636 856.508 281.807C856.308 281.716 856.116 281.608 855.934 281.486C855.903 281.466 855.498 281.139 855.763 281.367C855.154 280.893 854.696 280.253 854.443 279.525C853.877 277.754 853.614 275.902 853.664 274.044C853.765 271.603 853.349 269.167 852.442 266.898C852.173 266.284 851.763 265.741 851.245 265.315C850.727 264.888 850.116 264.59 849.461 264.444C848.806 264.298 848.126 264.309 847.476 264.475C846.826 264.641 846.224 264.958 845.72 265.4C844.301 267.31 843.616 269.667 843.788 272.04C843.66 274.336 843.903 276.639 844.509 278.858C845.551 282.507 847.632 285.774 850.498 288.261C853.809 291.16 857.967 292.914 862.354 293.264C862.957 293.251 863.542 293.062 864.04 292.722C864.538 292.381 864.925 291.903 865.156 291.347C865.387 290.79 865.451 290.178 865.34 289.585C865.229 288.993 864.948 288.446 864.531 288.01L859.021 282.782C858.443 282.211 857.661 281.891 856.848 281.894C856.035 281.897 855.256 282.221 854.681 282.795C854.106 283.37 853.781 284.149 853.779 284.962C853.776 285.775 854.095 286.556 854.667 287.134L860.177 292.362L862.354 287.108C861.445 287.027 860.547 286.843 859.679 286.562C858.737 286.3 857.837 285.906 857.006 285.391C856.192 284.946 855.429 284.413 854.731 283.801C854.284 283.409 853.857 282.994 853.452 282.558C853.305 282.4 853.161 282.238 853.02 282.075C853.03 282.086 852.441 281.346 852.694 281.685C852.057 280.814 851.503 279.886 851.038 278.912C850.875 278.567 850.74 278.209 850.634 277.843C850.439 277.239 850.28 276.625 850.157 276.003C849.922 274.695 849.851 273.364 849.946 272.039C849.973 271.478 850.029 270.918 850.114 270.362C850.192 270.069 850.249 269.77 850.286 269.469C850.297 268.722 850.184 269.869 849.794 270.043L848.24 270.463C847.987 270.442 847.742 270.365 847.523 270.237C847.303 270.108 847.116 269.932 846.974 269.722C846.909 269.465 846.928 269.511 847.029 269.859C847.145 270.267 847.236 270.683 847.3 271.103C847.418 272.079 847.487 273.06 847.506 274.044C847.526 276.127 847.768 278.202 848.228 280.233C848.66 282.275 849.725 284.128 851.272 285.529C852.819 286.93 854.769 287.807 856.844 288.036C857.659 288.029 858.438 287.703 859.014 287.127C859.59 286.551 859.917 285.772 859.923 284.958C859.907 284.147 859.577 283.373 859.003 282.8C858.429 282.226 857.656 281.897 856.844 281.881Z" fill="#2F2E41"/>
<path d="M734.464 294.571C744.669 294.571 752.942 286.302 752.942 276.101C752.942 265.901 744.669 257.631 734.464 257.631C724.259 257.631 715.986 265.901 715.986 276.101C715.986 286.302 724.259 294.571 734.464 294.571Z" fill="#FFC000"/>
<path d="M731.944 285.714C731.625 285.714 731.31 285.64 731.025 285.497C730.739 285.354 730.491 285.147 730.3 284.892L725.258 278.173C725.094 277.958 724.975 277.712 724.906 277.45C724.837 277.188 724.821 276.914 724.859 276.646C724.896 276.378 724.987 276.119 725.124 275.886C725.262 275.653 725.444 275.449 725.661 275.286C725.878 275.124 726.125 275.006 726.388 274.939C726.65 274.872 726.924 274.858 727.192 274.897C727.46 274.936 727.718 275.028 727.951 275.167C728.183 275.307 728.386 275.49 728.547 275.708L731.845 280.103L740.316 267.403C740.618 266.95 741.088 266.635 741.623 266.528C742.157 266.421 742.712 266.531 743.166 266.833C743.62 267.136 743.935 267.606 744.041 268.14C744.148 268.674 744.038 269.229 743.736 269.683L733.654 284.799C733.472 285.072 733.226 285.298 732.939 285.457C732.651 285.616 732.329 285.704 732.001 285.713L731.944 285.714Z" fill="white"/>
<path d="M986.812 296.38C983.204 296.38 979.677 295.311 976.677 293.307C973.677 291.304 971.338 288.456 969.958 285.124C968.577 281.791 968.215 278.125 968.919 274.588C969.623 271.05 971.361 267.801 973.912 265.251C976.463 262.701 979.714 260.964 983.253 260.26C986.792 259.557 990.46 259.918 993.793 261.298C997.127 262.678 999.976 265.016 1001.98 268.014C1003.99 271.013 1005.06 274.539 1005.06 278.145C1005.06 282.982 1003.13 287.62 999.712 291.039C996.291 294.459 991.65 296.38 986.812 296.38Z" fill="#E6E6E6"/>
<path d="M993.174 281.961L989.357 278.145L993.174 274.329C993.343 274.163 993.477 273.964 993.569 273.746C993.661 273.527 993.709 273.292 993.709 273.055C993.71 272.818 993.664 272.583 993.573 272.364C993.483 272.145 993.35 271.945 993.182 271.778C993.014 271.61 992.815 271.477 992.596 271.387C992.376 271.296 992.141 271.25 991.904 271.251C991.667 271.252 991.432 271.299 991.213 271.391C990.995 271.483 990.796 271.617 990.629 271.786L986.812 275.601L982.995 271.786C982.657 271.45 982.199 271.262 981.723 271.262C981.247 271.263 980.79 271.453 980.453 271.789C980.116 272.126 979.927 272.582 979.926 273.059C979.925 273.535 980.114 273.992 980.45 274.329L984.267 278.145L980.45 281.961C980.281 282.128 980.147 282.326 980.055 282.545C979.963 282.763 979.915 282.998 979.915 283.235C979.914 283.472 979.96 283.707 980.05 283.927C980.141 284.146 980.274 284.345 980.442 284.513C980.61 284.68 980.809 284.813 981.028 284.904C981.247 284.994 981.483 285.04 981.72 285.04C981.957 285.039 982.192 284.991 982.411 284.899C982.629 284.808 982.828 284.674 982.995 284.505L986.812 280.689L990.629 284.505C990.796 284.673 990.995 284.806 991.213 284.897C991.432 284.988 991.666 285.035 991.903 285.035C992.14 285.036 992.374 284.989 992.593 284.899C992.812 284.809 993.011 284.676 993.178 284.508C993.345 284.341 993.478 284.142 993.569 283.924C993.659 283.705 993.705 283.471 993.705 283.234C993.705 282.997 993.658 282.763 993.567 282.545C993.476 282.326 993.342 282.128 993.174 281.961Z" fill="white"/>
</svg>
